<mxfile host="Electron" agent="Mozilla/5.0 (Windows NT 10.0; Win64; x64) AppleWebKit/537.36 (KHTML, like Gecko) draw.io/27.0.9 Chrome/134.0.6998.205 Electron/35.4.0 Safari/537.36" version="27.0.9">
  <diagram name="Страница — 1" id="2cAWmT8eCPH076zVH4jf">
    <mxGraphModel dx="3700" dy="1887" grid="1" gridSize="10" guides="1" tooltips="1" connect="1" arrows="1" fold="1" page="1" pageScale="1" pageWidth="827" pageHeight="1169" math="0" shadow="0">
      <root>
        <mxCell id="0" />
        <mxCell id="1" parent="0" />
        <mxCell id="GMlVwXj9C4NVi-SE928_-1" value="" style="shape=table;startSize=0;container=1;collapsible=0;childLayout=tableLayout;strokeColor=#878787;strokeWidth=0.5;" parent="1" vertex="1">
          <mxGeometry x="320" y="240" width="1010" height="1050" as="geometry" />
        </mxCell>
        <mxCell id="GMlVwXj9C4NVi-SE928_-2" value="" style="shape=tableRow;horizontal=0;startSize=0;swimlaneHead=0;swimlaneBody=0;strokeColor=inherit;top=0;left=0;bottom=0;right=0;collapsible=0;dropTarget=0;fillColor=none;points=[[0,0.5],[1,0.5]];portConstraint=eastwest;" parent="GMlVwXj9C4NVi-SE928_-1" vertex="1">
          <mxGeometry width="1010" height="69" as="geometry" />
        </mxCell>
        <mxCell id="GMlVwXj9C4NVi-SE928_-3" value="" style="shape=partialRectangle;html=1;whiteSpace=wrap;connectable=0;strokeColor=inherit;overflow=hidden;fillColor=none;top=0;left=0;bottom=0;right=0;pointerEvents=1;" parent="GMlVwXj9C4NVi-SE928_-2" vertex="1">
          <mxGeometry width="100" height="69" as="geometry">
            <mxRectangle width="100" height="69" as="alternateBounds" />
          </mxGeometry>
        </mxCell>
        <mxCell id="GMlVwXj9C4NVi-SE928_-4" value="Продажи в сети отделений" style="shape=partialRectangle;html=1;whiteSpace=wrap;connectable=0;strokeColor=#666666;overflow=hidden;fillColor=#f5f5f5;top=0;left=0;bottom=0;right=0;pointerEvents=1;fontColor=#333333;" parent="GMlVwXj9C4NVi-SE928_-2" vertex="1">
          <mxGeometry x="100" width="172" height="69" as="geometry">
            <mxRectangle width="172" height="69" as="alternateBounds" />
          </mxGeometry>
        </mxCell>
        <mxCell id="GMlVwXj9C4NVi-SE928_-5" value="Продажи через кол-центр" style="shape=partialRectangle;html=1;whiteSpace=wrap;connectable=0;strokeColor=#666666;overflow=hidden;fillColor=#f5f5f5;top=0;left=0;bottom=0;right=0;pointerEvents=1;fontColor=#333333;" parent="GMlVwXj9C4NVi-SE928_-2" vertex="1">
          <mxGeometry x="272" width="147" height="69" as="geometry">
            <mxRectangle width="147" height="69" as="alternateBounds" />
          </mxGeometry>
        </mxCell>
        <mxCell id="GMlVwXj9C4NVi-SE928_-6" value="Оповещение клиентов" style="shape=partialRectangle;html=1;whiteSpace=wrap;connectable=0;strokeColor=#666666;overflow=hidden;fillColor=#f5f5f5;top=0;left=0;bottom=0;right=0;pointerEvents=1;fontColor=#333333;" parent="GMlVwXj9C4NVi-SE928_-2" vertex="1">
          <mxGeometry x="419" width="148" height="69" as="geometry">
            <mxRectangle width="148" height="69" as="alternateBounds" />
          </mxGeometry>
        </mxCell>
        <mxCell id="GMlVwXj9C4NVi-SE928_-7" value="Обслуживание депозитных процессов" style="shape=partialRectangle;html=1;whiteSpace=wrap;connectable=0;strokeColor=#666666;overflow=hidden;fillColor=#f5f5f5;top=0;left=0;bottom=0;right=0;pointerEvents=1;fontColor=#333333;" parent="GMlVwXj9C4NVi-SE928_-2" vertex="1">
          <mxGeometry x="567" width="148" height="69" as="geometry">
            <mxRectangle width="148" height="69" as="alternateBounds" />
          </mxGeometry>
        </mxCell>
        <mxCell id="GMlVwXj9C4NVi-SE928_-8" value="Обслуживание кредитных процессов" style="shape=partialRectangle;html=1;whiteSpace=wrap;connectable=0;strokeColor=#666666;overflow=hidden;fillColor=#f5f5f5;top=0;left=0;bottom=0;right=0;pointerEvents=1;fontColor=#333333;" parent="GMlVwXj9C4NVi-SE928_-2" vertex="1">
          <mxGeometry x="715" width="148" height="69" as="geometry">
            <mxRectangle width="148" height="69" as="alternateBounds" />
          </mxGeometry>
        </mxCell>
        <mxCell id="GMlVwXj9C4NVi-SE928_-9" value="Управление договорами" style="shape=partialRectangle;html=1;whiteSpace=wrap;connectable=0;strokeColor=#666666;overflow=hidden;fillColor=#f5f5f5;top=0;left=0;bottom=0;right=0;pointerEvents=1;fontColor=#333333;" parent="GMlVwXj9C4NVi-SE928_-2" vertex="1">
          <mxGeometry x="863" width="147" height="69" as="geometry">
            <mxRectangle width="147" height="69" as="alternateBounds" />
          </mxGeometry>
        </mxCell>
        <mxCell id="GMlVwXj9C4NVi-SE928_-10" value="" style="shape=tableRow;horizontal=0;startSize=0;swimlaneHead=0;swimlaneBody=0;strokeColor=inherit;top=0;left=0;bottom=0;right=0;collapsible=0;dropTarget=0;fillColor=none;points=[[0,0.5],[1,0.5]];portConstraint=eastwest;" parent="GMlVwXj9C4NVi-SE928_-1" vertex="1">
          <mxGeometry y="69" width="1010" height="111" as="geometry" />
        </mxCell>
        <mxCell id="GMlVwXj9C4NVi-SE928_-11" value="&lt;font&gt;Управление обслуживанием&lt;/font&gt;&lt;div&gt;&lt;font&gt;&amp;nbsp;в сети отделений&lt;/font&gt;&lt;/div&gt;" style="shape=partialRectangle;html=1;whiteSpace=wrap;connectable=0;strokeColor=#666666;overflow=hidden;fillColor=#f5f5f5;top=0;left=0;bottom=0;right=0;pointerEvents=1;fontColor=#333333;horizontal=0;" parent="GMlVwXj9C4NVi-SE928_-10" vertex="1">
          <mxGeometry width="100" height="111" as="geometry">
            <mxRectangle width="100" height="111" as="alternateBounds" />
          </mxGeometry>
        </mxCell>
        <mxCell id="GMlVwXj9C4NVi-SE928_-12" value="" style="shape=partialRectangle;html=1;whiteSpace=wrap;connectable=0;strokeColor=inherit;overflow=hidden;fillColor=none;top=0;left=0;bottom=0;right=0;pointerEvents=1;" parent="GMlVwXj9C4NVi-SE928_-10" vertex="1">
          <mxGeometry x="100" width="172" height="111" as="geometry">
            <mxRectangle width="172" height="111" as="alternateBounds" />
          </mxGeometry>
        </mxCell>
        <mxCell id="GMlVwXj9C4NVi-SE928_-13" value="" style="shape=partialRectangle;html=1;whiteSpace=wrap;connectable=0;strokeColor=inherit;overflow=hidden;fillColor=none;top=0;left=0;bottom=0;right=0;pointerEvents=1;" parent="GMlVwXj9C4NVi-SE928_-10" vertex="1">
          <mxGeometry x="272" width="147" height="111" as="geometry">
            <mxRectangle width="147" height="111" as="alternateBounds" />
          </mxGeometry>
        </mxCell>
        <mxCell id="GMlVwXj9C4NVi-SE928_-14" value="" style="shape=partialRectangle;html=1;whiteSpace=wrap;connectable=0;strokeColor=inherit;overflow=hidden;fillColor=none;top=0;left=0;bottom=0;right=0;pointerEvents=1;" parent="GMlVwXj9C4NVi-SE928_-10" vertex="1">
          <mxGeometry x="419" width="148" height="111" as="geometry">
            <mxRectangle width="148" height="111" as="alternateBounds" />
          </mxGeometry>
        </mxCell>
        <mxCell id="GMlVwXj9C4NVi-SE928_-15" value="" style="shape=partialRectangle;html=1;whiteSpace=wrap;connectable=0;strokeColor=inherit;overflow=hidden;fillColor=none;top=0;left=0;bottom=0;right=0;pointerEvents=1;" parent="GMlVwXj9C4NVi-SE928_-10" vertex="1">
          <mxGeometry x="567" width="148" height="111" as="geometry">
            <mxRectangle width="148" height="111" as="alternateBounds" />
          </mxGeometry>
        </mxCell>
        <mxCell id="GMlVwXj9C4NVi-SE928_-16" value="" style="shape=partialRectangle;html=1;whiteSpace=wrap;connectable=0;strokeColor=inherit;overflow=hidden;fillColor=none;top=0;left=0;bottom=0;right=0;pointerEvents=1;" parent="GMlVwXj9C4NVi-SE928_-10" vertex="1">
          <mxGeometry x="715" width="148" height="111" as="geometry">
            <mxRectangle width="148" height="111" as="alternateBounds" />
          </mxGeometry>
        </mxCell>
        <mxCell id="GMlVwXj9C4NVi-SE928_-17" value="" style="shape=partialRectangle;html=1;whiteSpace=wrap;connectable=0;strokeColor=inherit;overflow=hidden;fillColor=none;top=0;left=0;bottom=0;right=0;pointerEvents=1;" parent="GMlVwXj9C4NVi-SE928_-10" vertex="1">
          <mxGeometry x="863" width="147" height="111" as="geometry">
            <mxRectangle width="147" height="111" as="alternateBounds" />
          </mxGeometry>
        </mxCell>
        <mxCell id="GMlVwXj9C4NVi-SE928_-18" value="" style="shape=tableRow;horizontal=0;startSize=0;swimlaneHead=0;swimlaneBody=0;strokeColor=inherit;top=0;left=0;bottom=0;right=0;collapsible=0;dropTarget=0;fillColor=none;points=[[0,0.5],[1,0.5]];portConstraint=eastwest;" parent="GMlVwXj9C4NVi-SE928_-1" vertex="1">
          <mxGeometry y="180" width="1010" height="170" as="geometry" />
        </mxCell>
        <mxCell id="GMlVwXj9C4NVi-SE928_-19" value="Управление обслуживанием кредитных продуктов" style="shape=partialRectangle;html=1;whiteSpace=wrap;connectable=0;overflow=hidden;top=0;left=0;bottom=0;right=0;pointerEvents=1;fillColor=#f5f5f5;strokeColor=#666666;fontColor=#333333;horizontal=0;" parent="GMlVwXj9C4NVi-SE928_-18" vertex="1">
          <mxGeometry width="100" height="170" as="geometry">
            <mxRectangle width="100" height="170" as="alternateBounds" />
          </mxGeometry>
        </mxCell>
        <mxCell id="GMlVwXj9C4NVi-SE928_-20" value="" style="shape=partialRectangle;html=1;whiteSpace=wrap;connectable=0;strokeColor=inherit;overflow=hidden;fillColor=none;top=0;left=0;bottom=0;right=0;pointerEvents=1;" parent="GMlVwXj9C4NVi-SE928_-18" vertex="1">
          <mxGeometry x="100" width="172" height="170" as="geometry">
            <mxRectangle width="172" height="170" as="alternateBounds" />
          </mxGeometry>
        </mxCell>
        <mxCell id="GMlVwXj9C4NVi-SE928_-21" value="" style="shape=partialRectangle;html=1;whiteSpace=wrap;connectable=0;strokeColor=inherit;overflow=hidden;fillColor=none;top=0;left=0;bottom=0;right=0;pointerEvents=1;" parent="GMlVwXj9C4NVi-SE928_-18" vertex="1">
          <mxGeometry x="272" width="147" height="170" as="geometry">
            <mxRectangle width="147" height="170" as="alternateBounds" />
          </mxGeometry>
        </mxCell>
        <mxCell id="GMlVwXj9C4NVi-SE928_-22" value="" style="shape=partialRectangle;html=1;whiteSpace=wrap;connectable=0;strokeColor=inherit;overflow=hidden;fillColor=none;top=0;left=0;bottom=0;right=0;pointerEvents=1;" parent="GMlVwXj9C4NVi-SE928_-18" vertex="1">
          <mxGeometry x="419" width="148" height="170" as="geometry">
            <mxRectangle width="148" height="170" as="alternateBounds" />
          </mxGeometry>
        </mxCell>
        <mxCell id="GMlVwXj9C4NVi-SE928_-23" value="" style="shape=partialRectangle;html=1;whiteSpace=wrap;connectable=0;strokeColor=inherit;overflow=hidden;fillColor=none;top=0;left=0;bottom=0;right=0;pointerEvents=1;" parent="GMlVwXj9C4NVi-SE928_-18" vertex="1">
          <mxGeometry x="567" width="148" height="170" as="geometry">
            <mxRectangle width="148" height="170" as="alternateBounds" />
          </mxGeometry>
        </mxCell>
        <mxCell id="GMlVwXj9C4NVi-SE928_-24" value="" style="shape=partialRectangle;html=1;whiteSpace=wrap;connectable=0;strokeColor=inherit;overflow=hidden;fillColor=none;top=0;left=0;bottom=0;right=0;pointerEvents=1;" parent="GMlVwXj9C4NVi-SE928_-18" vertex="1">
          <mxGeometry x="715" width="148" height="170" as="geometry">
            <mxRectangle width="148" height="170" as="alternateBounds" />
          </mxGeometry>
        </mxCell>
        <mxCell id="GMlVwXj9C4NVi-SE928_-25" value="" style="shape=partialRectangle;html=1;whiteSpace=wrap;connectable=0;strokeColor=inherit;overflow=hidden;fillColor=none;top=0;left=0;bottom=0;right=0;pointerEvents=1;" parent="GMlVwXj9C4NVi-SE928_-18" vertex="1">
          <mxGeometry x="863" width="147" height="170" as="geometry">
            <mxRectangle width="147" height="170" as="alternateBounds" />
          </mxGeometry>
        </mxCell>
        <mxCell id="GMlVwXj9C4NVi-SE928_-26" value="" style="shape=tableRow;horizontal=0;startSize=0;swimlaneHead=0;swimlaneBody=0;strokeColor=inherit;top=0;left=0;bottom=0;right=0;collapsible=0;dropTarget=0;fillColor=none;points=[[0,0.5],[1,0.5]];portConstraint=eastwest;" parent="GMlVwXj9C4NVi-SE928_-1" vertex="1">
          <mxGeometry y="350" width="1010" height="180" as="geometry" />
        </mxCell>
        <mxCell id="GMlVwXj9C4NVi-SE928_-27" value="Управление обслуживанием депозитных продуктов" style="shape=partialRectangle;html=1;whiteSpace=wrap;connectable=0;strokeColor=#666666;overflow=hidden;fillColor=#f5f5f5;top=0;left=0;bottom=0;right=0;pointerEvents=1;fontColor=#333333;horizontal=0;" parent="GMlVwXj9C4NVi-SE928_-26" vertex="1">
          <mxGeometry width="100" height="180" as="geometry">
            <mxRectangle width="100" height="180" as="alternateBounds" />
          </mxGeometry>
        </mxCell>
        <mxCell id="GMlVwXj9C4NVi-SE928_-28" value="" style="shape=partialRectangle;html=1;whiteSpace=wrap;connectable=0;strokeColor=inherit;overflow=hidden;fillColor=none;top=0;left=0;bottom=0;right=0;pointerEvents=1;" parent="GMlVwXj9C4NVi-SE928_-26" vertex="1">
          <mxGeometry x="100" width="172" height="180" as="geometry">
            <mxRectangle width="172" height="180" as="alternateBounds" />
          </mxGeometry>
        </mxCell>
        <mxCell id="GMlVwXj9C4NVi-SE928_-29" value="" style="shape=partialRectangle;html=1;whiteSpace=wrap;connectable=0;strokeColor=inherit;overflow=hidden;fillColor=none;top=0;left=0;bottom=0;right=0;pointerEvents=1;" parent="GMlVwXj9C4NVi-SE928_-26" vertex="1">
          <mxGeometry x="272" width="147" height="180" as="geometry">
            <mxRectangle width="147" height="180" as="alternateBounds" />
          </mxGeometry>
        </mxCell>
        <mxCell id="GMlVwXj9C4NVi-SE928_-30" value="" style="shape=partialRectangle;html=1;whiteSpace=wrap;connectable=0;strokeColor=inherit;overflow=hidden;fillColor=none;top=0;left=0;bottom=0;right=0;pointerEvents=1;" parent="GMlVwXj9C4NVi-SE928_-26" vertex="1">
          <mxGeometry x="419" width="148" height="180" as="geometry">
            <mxRectangle width="148" height="180" as="alternateBounds" />
          </mxGeometry>
        </mxCell>
        <mxCell id="GMlVwXj9C4NVi-SE928_-31" value="" style="shape=partialRectangle;html=1;whiteSpace=wrap;connectable=0;strokeColor=inherit;overflow=hidden;fillColor=none;top=0;left=0;bottom=0;right=0;pointerEvents=1;" parent="GMlVwXj9C4NVi-SE928_-26" vertex="1">
          <mxGeometry x="567" width="148" height="180" as="geometry">
            <mxRectangle width="148" height="180" as="alternateBounds" />
          </mxGeometry>
        </mxCell>
        <mxCell id="GMlVwXj9C4NVi-SE928_-32" value="" style="shape=partialRectangle;html=1;whiteSpace=wrap;connectable=0;strokeColor=inherit;overflow=hidden;fillColor=none;top=0;left=0;bottom=0;right=0;pointerEvents=1;" parent="GMlVwXj9C4NVi-SE928_-26" vertex="1">
          <mxGeometry x="715" width="148" height="180" as="geometry">
            <mxRectangle width="148" height="180" as="alternateBounds" />
          </mxGeometry>
        </mxCell>
        <mxCell id="GMlVwXj9C4NVi-SE928_-33" value="" style="shape=partialRectangle;html=1;whiteSpace=wrap;connectable=0;strokeColor=inherit;overflow=hidden;fillColor=none;top=0;left=0;bottom=0;right=0;pointerEvents=1;" parent="GMlVwXj9C4NVi-SE928_-26" vertex="1">
          <mxGeometry x="863" width="147" height="180" as="geometry">
            <mxRectangle width="147" height="180" as="alternateBounds" />
          </mxGeometry>
        </mxCell>
        <mxCell id="GMlVwXj9C4NVi-SE928_-34" value="" style="shape=tableRow;horizontal=0;startSize=0;swimlaneHead=0;swimlaneBody=0;strokeColor=inherit;top=0;left=0;bottom=0;right=0;collapsible=0;dropTarget=0;fillColor=none;points=[[0,0.5],[1,0.5]];portConstraint=eastwest;" parent="GMlVwXj9C4NVi-SE928_-1" vertex="1">
          <mxGeometry y="530" width="1010" height="240" as="geometry" />
        </mxCell>
        <mxCell id="GMlVwXj9C4NVi-SE928_-35" value="Управление IT" style="shape=partialRectangle;html=1;whiteSpace=wrap;connectable=0;strokeColor=#666666;overflow=hidden;fillColor=#f5f5f5;top=0;left=0;bottom=0;right=0;pointerEvents=1;fontColor=#333333;horizontal=0;" parent="GMlVwXj9C4NVi-SE928_-34" vertex="1">
          <mxGeometry width="100" height="240" as="geometry">
            <mxRectangle width="100" height="240" as="alternateBounds" />
          </mxGeometry>
        </mxCell>
        <mxCell id="GMlVwXj9C4NVi-SE928_-36" value="" style="shape=partialRectangle;html=1;whiteSpace=wrap;connectable=0;strokeColor=inherit;overflow=hidden;fillColor=none;top=0;left=0;bottom=0;right=0;pointerEvents=1;" parent="GMlVwXj9C4NVi-SE928_-34" vertex="1">
          <mxGeometry x="100" width="172" height="240" as="geometry">
            <mxRectangle width="172" height="240" as="alternateBounds" />
          </mxGeometry>
        </mxCell>
        <mxCell id="GMlVwXj9C4NVi-SE928_-37" value="" style="shape=partialRectangle;html=1;whiteSpace=wrap;connectable=0;strokeColor=inherit;overflow=hidden;fillColor=none;top=0;left=0;bottom=0;right=0;pointerEvents=1;" parent="GMlVwXj9C4NVi-SE928_-34" vertex="1">
          <mxGeometry x="272" width="147" height="240" as="geometry">
            <mxRectangle width="147" height="240" as="alternateBounds" />
          </mxGeometry>
        </mxCell>
        <mxCell id="GMlVwXj9C4NVi-SE928_-38" value="" style="shape=partialRectangle;html=1;whiteSpace=wrap;connectable=0;strokeColor=inherit;overflow=hidden;fillColor=none;top=0;left=0;bottom=0;right=0;pointerEvents=1;" parent="GMlVwXj9C4NVi-SE928_-34" vertex="1">
          <mxGeometry x="419" width="148" height="240" as="geometry">
            <mxRectangle width="148" height="240" as="alternateBounds" />
          </mxGeometry>
        </mxCell>
        <mxCell id="GMlVwXj9C4NVi-SE928_-39" value="" style="shape=partialRectangle;html=1;whiteSpace=wrap;connectable=0;strokeColor=inherit;overflow=hidden;fillColor=none;top=0;left=0;bottom=0;right=0;pointerEvents=1;" parent="GMlVwXj9C4NVi-SE928_-34" vertex="1">
          <mxGeometry x="567" width="148" height="240" as="geometry">
            <mxRectangle width="148" height="240" as="alternateBounds" />
          </mxGeometry>
        </mxCell>
        <mxCell id="GMlVwXj9C4NVi-SE928_-40" value="" style="shape=partialRectangle;html=1;whiteSpace=wrap;connectable=0;strokeColor=inherit;overflow=hidden;fillColor=none;top=0;left=0;bottom=0;right=0;pointerEvents=1;" parent="GMlVwXj9C4NVi-SE928_-34" vertex="1">
          <mxGeometry x="715" width="148" height="240" as="geometry">
            <mxRectangle width="148" height="240" as="alternateBounds" />
          </mxGeometry>
        </mxCell>
        <mxCell id="GMlVwXj9C4NVi-SE928_-41" value="" style="shape=partialRectangle;html=1;whiteSpace=wrap;connectable=0;strokeColor=inherit;overflow=hidden;fillColor=none;top=0;left=0;bottom=0;right=0;pointerEvents=1;" parent="GMlVwXj9C4NVi-SE928_-34" vertex="1">
          <mxGeometry x="863" width="147" height="240" as="geometry">
            <mxRectangle width="147" height="240" as="alternateBounds" />
          </mxGeometry>
        </mxCell>
        <mxCell id="GMlVwXj9C4NVi-SE928_-42" value="" style="shape=tableRow;horizontal=0;startSize=0;swimlaneHead=0;swimlaneBody=0;strokeColor=inherit;top=0;left=0;bottom=0;right=0;collapsible=0;dropTarget=0;fillColor=none;points=[[0,0.5],[1,0.5]];portConstraint=eastwest;" parent="GMlVwXj9C4NVi-SE928_-1" vertex="1">
          <mxGeometry y="770" width="1010" height="100" as="geometry" />
        </mxCell>
        <mxCell id="GMlVwXj9C4NVi-SE928_-43" value="Кол-центр&lt;div&gt;&amp;nbsp;банка «Стандарт»&lt;/div&gt;" style="shape=partialRectangle;html=1;whiteSpace=wrap;connectable=0;strokeColor=#666666;overflow=hidden;fillColor=#f5f5f5;top=0;left=0;bottom=0;right=0;pointerEvents=1;fontColor=#333333;horizontal=0;" parent="GMlVwXj9C4NVi-SE928_-42" vertex="1">
          <mxGeometry width="100" height="100" as="geometry">
            <mxRectangle width="100" height="100" as="alternateBounds" />
          </mxGeometry>
        </mxCell>
        <mxCell id="GMlVwXj9C4NVi-SE928_-44" value="" style="shape=partialRectangle;html=1;whiteSpace=wrap;connectable=0;strokeColor=inherit;overflow=hidden;fillColor=none;top=0;left=0;bottom=0;right=0;pointerEvents=1;" parent="GMlVwXj9C4NVi-SE928_-42" vertex="1">
          <mxGeometry x="100" width="172" height="100" as="geometry">
            <mxRectangle width="172" height="100" as="alternateBounds" />
          </mxGeometry>
        </mxCell>
        <mxCell id="GMlVwXj9C4NVi-SE928_-45" value="" style="shape=partialRectangle;html=1;whiteSpace=wrap;connectable=0;strokeColor=inherit;overflow=hidden;fillColor=none;top=0;left=0;bottom=0;right=0;pointerEvents=1;" parent="GMlVwXj9C4NVi-SE928_-42" vertex="1">
          <mxGeometry x="272" width="147" height="100" as="geometry">
            <mxRectangle width="147" height="100" as="alternateBounds" />
          </mxGeometry>
        </mxCell>
        <mxCell id="GMlVwXj9C4NVi-SE928_-46" value="" style="shape=partialRectangle;html=1;whiteSpace=wrap;connectable=0;strokeColor=inherit;overflow=hidden;fillColor=none;top=0;left=0;bottom=0;right=0;pointerEvents=1;" parent="GMlVwXj9C4NVi-SE928_-42" vertex="1">
          <mxGeometry x="419" width="148" height="100" as="geometry">
            <mxRectangle width="148" height="100" as="alternateBounds" />
          </mxGeometry>
        </mxCell>
        <mxCell id="GMlVwXj9C4NVi-SE928_-47" value="" style="shape=partialRectangle;html=1;whiteSpace=wrap;connectable=0;strokeColor=inherit;overflow=hidden;fillColor=none;top=0;left=0;bottom=0;right=0;pointerEvents=1;" parent="GMlVwXj9C4NVi-SE928_-42" vertex="1">
          <mxGeometry x="567" width="148" height="100" as="geometry">
            <mxRectangle width="148" height="100" as="alternateBounds" />
          </mxGeometry>
        </mxCell>
        <mxCell id="GMlVwXj9C4NVi-SE928_-48" value="" style="shape=partialRectangle;html=1;whiteSpace=wrap;connectable=0;strokeColor=inherit;overflow=hidden;fillColor=none;top=0;left=0;bottom=0;right=0;pointerEvents=1;" parent="GMlVwXj9C4NVi-SE928_-42" vertex="1">
          <mxGeometry x="715" width="148" height="100" as="geometry">
            <mxRectangle width="148" height="100" as="alternateBounds" />
          </mxGeometry>
        </mxCell>
        <mxCell id="GMlVwXj9C4NVi-SE928_-49" value="" style="shape=partialRectangle;html=1;whiteSpace=wrap;connectable=0;strokeColor=inherit;overflow=hidden;fillColor=none;top=0;left=0;bottom=0;right=0;pointerEvents=1;" parent="GMlVwXj9C4NVi-SE928_-42" vertex="1">
          <mxGeometry x="863" width="147" height="100" as="geometry">
            <mxRectangle width="147" height="100" as="alternateBounds" />
          </mxGeometry>
        </mxCell>
        <mxCell id="GMlVwXj9C4NVi-SE928_-50" value="" style="shape=tableRow;horizontal=0;startSize=0;swimlaneHead=0;swimlaneBody=0;strokeColor=inherit;top=0;left=0;bottom=0;right=0;collapsible=0;dropTarget=0;fillColor=none;points=[[0,0.5],[1,0.5]];portConstraint=eastwest;" parent="GMlVwXj9C4NVi-SE928_-1" vertex="1">
          <mxGeometry y="870" width="1010" height="80" as="geometry" />
        </mxCell>
        <mxCell id="GMlVwXj9C4NVi-SE928_-51" value="Партнёрский кол-центр" style="shape=partialRectangle;html=1;whiteSpace=wrap;connectable=0;strokeColor=#666666;overflow=hidden;fillColor=#f5f5f5;top=0;left=0;bottom=0;right=0;pointerEvents=1;fontColor=#333333;horizontal=0;" parent="GMlVwXj9C4NVi-SE928_-50" vertex="1">
          <mxGeometry width="100" height="80" as="geometry">
            <mxRectangle width="100" height="80" as="alternateBounds" />
          </mxGeometry>
        </mxCell>
        <mxCell id="GMlVwXj9C4NVi-SE928_-52" value="" style="shape=partialRectangle;html=1;whiteSpace=wrap;connectable=0;strokeColor=inherit;overflow=hidden;fillColor=none;top=0;left=0;bottom=0;right=0;pointerEvents=1;" parent="GMlVwXj9C4NVi-SE928_-50" vertex="1">
          <mxGeometry x="100" width="172" height="80" as="geometry">
            <mxRectangle width="172" height="80" as="alternateBounds" />
          </mxGeometry>
        </mxCell>
        <mxCell id="GMlVwXj9C4NVi-SE928_-53" value="" style="shape=partialRectangle;html=1;whiteSpace=wrap;connectable=0;strokeColor=inherit;overflow=hidden;fillColor=none;top=0;left=0;bottom=0;right=0;pointerEvents=1;" parent="GMlVwXj9C4NVi-SE928_-50" vertex="1">
          <mxGeometry x="272" width="147" height="80" as="geometry">
            <mxRectangle width="147" height="80" as="alternateBounds" />
          </mxGeometry>
        </mxCell>
        <mxCell id="GMlVwXj9C4NVi-SE928_-54" value="" style="shape=partialRectangle;html=1;whiteSpace=wrap;connectable=0;strokeColor=inherit;overflow=hidden;fillColor=none;top=0;left=0;bottom=0;right=0;pointerEvents=1;" parent="GMlVwXj9C4NVi-SE928_-50" vertex="1">
          <mxGeometry x="419" width="148" height="80" as="geometry">
            <mxRectangle width="148" height="80" as="alternateBounds" />
          </mxGeometry>
        </mxCell>
        <mxCell id="GMlVwXj9C4NVi-SE928_-55" value="" style="shape=partialRectangle;html=1;whiteSpace=wrap;connectable=0;strokeColor=inherit;overflow=hidden;fillColor=none;top=0;left=0;bottom=0;right=0;pointerEvents=1;" parent="GMlVwXj9C4NVi-SE928_-50" vertex="1">
          <mxGeometry x="567" width="148" height="80" as="geometry">
            <mxRectangle width="148" height="80" as="alternateBounds" />
          </mxGeometry>
        </mxCell>
        <mxCell id="GMlVwXj9C4NVi-SE928_-56" value="" style="shape=partialRectangle;html=1;whiteSpace=wrap;connectable=0;strokeColor=inherit;overflow=hidden;fillColor=none;top=0;left=0;bottom=0;right=0;pointerEvents=1;" parent="GMlVwXj9C4NVi-SE928_-50" vertex="1">
          <mxGeometry x="715" width="148" height="80" as="geometry">
            <mxRectangle width="148" height="80" as="alternateBounds" />
          </mxGeometry>
        </mxCell>
        <mxCell id="GMlVwXj9C4NVi-SE928_-57" value="" style="shape=partialRectangle;html=1;whiteSpace=wrap;connectable=0;strokeColor=inherit;overflow=hidden;fillColor=none;top=0;left=0;bottom=0;right=0;pointerEvents=1;" parent="GMlVwXj9C4NVi-SE928_-50" vertex="1">
          <mxGeometry x="863" width="147" height="80" as="geometry">
            <mxRectangle width="147" height="80" as="alternateBounds" />
          </mxGeometry>
        </mxCell>
        <mxCell id="GMlVwXj9C4NVi-SE928_-58" value="" style="shape=tableRow;horizontal=0;startSize=0;swimlaneHead=0;swimlaneBody=0;strokeColor=inherit;top=0;left=0;bottom=0;right=0;collapsible=0;dropTarget=0;fillColor=none;points=[[0,0.5],[1,0.5]];portConstraint=eastwest;" parent="GMlVwXj9C4NVi-SE928_-1" vertex="1">
          <mxGeometry y="950" width="1010" height="100" as="geometry" />
        </mxCell>
        <mxCell id="GMlVwXj9C4NVi-SE928_-59" value="Команда цифровой трансформации розничного бизнеса" style="shape=partialRectangle;html=1;whiteSpace=wrap;connectable=0;strokeColor=#666666;overflow=hidden;fillColor=#f5f5f5;top=0;left=0;bottom=0;right=0;pointerEvents=1;fontColor=#333333;horizontal=0;" parent="GMlVwXj9C4NVi-SE928_-58" vertex="1">
          <mxGeometry width="100" height="100" as="geometry">
            <mxRectangle width="100" height="100" as="alternateBounds" />
          </mxGeometry>
        </mxCell>
        <mxCell id="GMlVwXj9C4NVi-SE928_-60" value="" style="shape=partialRectangle;html=1;whiteSpace=wrap;connectable=0;strokeColor=inherit;overflow=hidden;fillColor=none;top=0;left=0;bottom=0;right=0;pointerEvents=1;" parent="GMlVwXj9C4NVi-SE928_-58" vertex="1">
          <mxGeometry x="100" width="172" height="100" as="geometry">
            <mxRectangle width="172" height="100" as="alternateBounds" />
          </mxGeometry>
        </mxCell>
        <mxCell id="GMlVwXj9C4NVi-SE928_-61" value="" style="shape=partialRectangle;html=1;whiteSpace=wrap;connectable=0;strokeColor=inherit;overflow=hidden;fillColor=none;top=0;left=0;bottom=0;right=0;pointerEvents=1;" parent="GMlVwXj9C4NVi-SE928_-58" vertex="1">
          <mxGeometry x="272" width="147" height="100" as="geometry">
            <mxRectangle width="147" height="100" as="alternateBounds" />
          </mxGeometry>
        </mxCell>
        <mxCell id="GMlVwXj9C4NVi-SE928_-62" value="" style="shape=partialRectangle;html=1;whiteSpace=wrap;connectable=0;strokeColor=inherit;overflow=hidden;fillColor=none;top=0;left=0;bottom=0;right=0;pointerEvents=1;" parent="GMlVwXj9C4NVi-SE928_-58" vertex="1">
          <mxGeometry x="419" width="148" height="100" as="geometry">
            <mxRectangle width="148" height="100" as="alternateBounds" />
          </mxGeometry>
        </mxCell>
        <mxCell id="GMlVwXj9C4NVi-SE928_-63" value="" style="shape=partialRectangle;html=1;whiteSpace=wrap;connectable=0;strokeColor=inherit;overflow=hidden;fillColor=none;top=0;left=0;bottom=0;right=0;pointerEvents=1;" parent="GMlVwXj9C4NVi-SE928_-58" vertex="1">
          <mxGeometry x="567" width="148" height="100" as="geometry">
            <mxRectangle width="148" height="100" as="alternateBounds" />
          </mxGeometry>
        </mxCell>
        <mxCell id="GMlVwXj9C4NVi-SE928_-64" value="" style="shape=partialRectangle;html=1;whiteSpace=wrap;connectable=0;strokeColor=inherit;overflow=hidden;fillColor=none;top=0;left=0;bottom=0;right=0;pointerEvents=1;" parent="GMlVwXj9C4NVi-SE928_-58" vertex="1">
          <mxGeometry x="715" width="148" height="100" as="geometry">
            <mxRectangle width="148" height="100" as="alternateBounds" />
          </mxGeometry>
        </mxCell>
        <mxCell id="GMlVwXj9C4NVi-SE928_-65" value="" style="shape=partialRectangle;html=1;whiteSpace=wrap;connectable=0;strokeColor=inherit;overflow=hidden;fillColor=none;top=0;left=0;bottom=0;right=0;pointerEvents=1;" parent="GMlVwXj9C4NVi-SE928_-58" vertex="1">
          <mxGeometry x="863" width="147" height="100" as="geometry">
            <mxRectangle width="147" height="100" as="alternateBounds" />
          </mxGeometry>
        </mxCell>
        <mxCell id="GMlVwXj9C4NVi-SE928_-66" value="АБС" style="rounded=1;whiteSpace=wrap;html=1;fillColor=#dae8fc;strokeColor=#6c8ebf;fillOpacity=100;" parent="1" vertex="1">
          <mxGeometry x="900" y="330" width="410" height="660" as="geometry" />
        </mxCell>
        <mxCell id="GMlVwXj9C4NVi-SE928_-67" value="Сайт" style="rounded=1;whiteSpace=wrap;html=1;fillColor=#dae8fc;strokeColor=#6c8ebf;" parent="1" vertex="1">
          <mxGeometry x="750" y="940" width="120" height="60" as="geometry" />
        </mxCell>
        <mxCell id="GMlVwXj9C4NVi-SE928_-68" value="Система партнерского&lt;div&gt;кол-центра&lt;/div&gt;" style="rounded=1;whiteSpace=wrap;html=1;fillColor=#dae8fc;strokeColor=#6c8ebf;" parent="1" vertex="1">
          <mxGeometry x="600" y="1120" width="580" height="60" as="geometry" />
        </mxCell>
        <mxCell id="GMlVwXj9C4NVi-SE928_-69" value="Интернет-банк" style="rounded=1;whiteSpace=wrap;html=1;fillColor=#dae8fc;strokeColor=#6c8ebf;" parent="1" vertex="1">
          <mxGeometry x="760" y="785" width="270" height="60" as="geometry" />
        </mxCell>
        <mxCell id="GMlVwXj9C4NVi-SE928_-70" value="Система кол-центра&lt;div&gt;&lt;span style=&quot;color: rgb(51, 51, 51); background-color: transparent;&quot;&gt;банка «Стандарт»&lt;/span&gt;&lt;/div&gt;" style="rounded=1;whiteSpace=wrap;html=1;fillColor=#dae8fc;strokeColor=#6c8ebf;" parent="1" vertex="1">
          <mxGeometry x="600" y="1024" width="580" height="70" as="geometry" />
        </mxCell>
        <mxCell id="GMlVwXj9C4NVi-SE928_-71" value="СМС-шлюз&lt;div&gt;телеком-оператора&lt;/div&gt;" style="rounded=1;whiteSpace=wrap;html=1;fillColor=#dae8fc;strokeColor=#6c8ebf;" parent="1" vertex="1">
          <mxGeometry x="750" y="860" width="120" height="70" as="geometry" />
        </mxCell>
        <mxCell id="GMlVwXj9C4NVi-SE928_-73" value="АБС" style="rounded=1;whiteSpace=wrap;html=1;fillColor=#dae8fc;strokeColor=#6c8ebf;fillOpacity=100;" parent="1" vertex="1">
          <mxGeometry x="430" y="320" width="150" height="680" as="geometry" />
        </mxCell>
        <mxCell id="GMlVwXj9C4NVi-SE928_-75" value="АБС" style="rounded=1;whiteSpace=wrap;html=1;fillColor=#dae8fc;strokeColor=#6c8ebf;fillOpacity=100;" parent="1" vertex="1">
          <mxGeometry x="600" y="430" width="130" height="570" as="geometry" />
        </mxCell>
        <mxCell id="GMlVwXj9C4NVi-SE928_-77" value="АБС" style="rounded=1;whiteSpace=wrap;html=1;fillColor=#dae8fc;strokeColor=#6c8ebf;fillOpacity=100;" parent="1" vertex="1">
          <mxGeometry x="430" y="1200" width="740" height="40" as="geometry" />
        </mxCell>
        <mxCell id="GMlVwXj9C4NVi-SE928_-76" value="Интернет-банк" style="rounded=1;whiteSpace=wrap;html=1;fillColor=#dae8fc;strokeColor=#6c8ebf;" parent="1" vertex="1">
          <mxGeometry x="750" y="1230" width="410" height="50" as="geometry" />
        </mxCell>
      </root>
    </mxGraphModel>
  </diagram>
</mxfile>
